<?xml version="1.0" encoding="utf-8"?>
<!-- Generator: Adobe Illustrator 17.0.0, SVG Export Plug-In . SVG Version: 6.00 Build 0)  -->
<!DOCTYPE svg PUBLIC "-//W3C//DTD SVG 1.1//EN" "http://www.w3.org/Graphics/SVG/1.1/DTD/svg11.dtd">
<svg version="1.1" id="Layer_1" xmlns="http://www.w3.org/2000/svg" xmlns:xlink="http://www.w3.org/1999/xlink" x="0px" y="0px"
	 width="19.922px" height="19.657px" viewBox="0 0 19.922 19.657" enable-background="new 0 0 19.922 19.657" xml:space="preserve">
<g id="rounded_user">
	<g>
		<path fill="#EC2127" d="M10.46,2.044c1.374,0,2.492,1.157,2.492,2.579s-1.118,2.579-2.492,2.579S7.969,6.045,7.969,4.623
			S9.087,2.044,10.46,2.044 M10.46,0.11c-2.445,0-4.426,2.021-4.426,4.513c0,2.493,1.982,4.513,4.426,4.513
			c2.445,0,4.426-2.021,4.426-4.513C14.887,2.13,12.905,0.11,10.46,0.11L10.46,0.11z"/>
	</g>
	<g>
		<path fill="#EC2127" d="M13.174,12.106c1.723,0,3.179,1.259,3.179,2.749s-1.456,2.749-3.179,2.749H7.747
			c-1.723,0-3.179-1.259-3.179-2.749s1.456-2.749,3.179-2.749H13.174 M13.174,10.104H7.747c-2.85,0-5.181,2.138-5.181,4.751
			c0,2.613,2.332,4.751,5.181,4.751h5.428c2.85,0,5.181-2.138,5.181-4.751C18.355,12.242,16.024,10.104,13.174,10.104L13.174,10.104
			z"/>
	</g>
</g>
</svg>
