<?xml version="1.0" encoding="utf-8"?>
<!-- Generator: Adobe Illustrator 17.0.0, SVG Export Plug-In . SVG Version: 6.00 Build 0)  -->
<!DOCTYPE svg PUBLIC "-//W3C//DTD SVG 1.0//EN" "http://www.w3.org/TR/2001/REC-SVG-20010904/DTD/svg10.dtd">
<svg version="1.0" id="Layer_1" xmlns="http://www.w3.org/2000/svg" xmlns:xlink="http://www.w3.org/1999/xlink" x="0px" y="0px"
	 width="30px" height="30px" viewBox="0 0 30 30" enable-background="new 0 0 30 30" xml:space="preserve">
<path fill="#EF4546" d="M27.249,12.143h-9.391V2.751C17.857,1.234,16.623,0,15.106,0h-0.212c-1.517,0-2.751,1.234-2.751,2.751v9.391
	H2.751C1.234,12.143,0,13.377,0,14.894v0.212c0,1.517,1.234,2.751,2.751,2.751h9.391v9.391c0,1.517,1.234,2.751,2.751,2.751h0.212
	c1.517,0,2.751-1.234,2.751-2.751v-9.391h9.391c1.517,0,2.751-1.234,2.751-2.751v-0.212C30,13.377,28.766,12.143,27.249,12.143z"/>
</svg>
