<?xml version="1.0" encoding="utf-8"?>
<!-- Generator: Adobe Illustrator 17.0.0, SVG Export Plug-In . SVG Version: 6.00 Build 0)  -->
<!DOCTYPE svg PUBLIC "-//W3C//DTD SVG 1.1//EN" "http://www.w3.org/Graphics/SVG/1.1/DTD/svg11.dtd">
<svg version="1.1" id="Layer_1" xmlns="http://www.w3.org/2000/svg" xmlns:xlink="http://www.w3.org/1999/xlink" x="0px" y="0px"
	 width="14.56px" height="9.3px" viewBox="0 0 14.56 9.3" enable-background="new 0 0 14.56 9.3" xml:space="preserve">
<g>
	<path fill="#F00005" d="M14.56,4.655c0,0.55-0.45,0.99-1.01,0.99H3.82l1.96,1.96c0.37,0.38,0.37,0.99,0,1.37l-0.05,0.04
		c-0.37,0.38-0.99,0.38-1.36,0l-2.96-2.96L0,4.655l1.41-1.41l2.96-2.96c0.37-0.38,0.99-0.38,1.36,0l0.05,0.04
		c0.37,0.38,0.37,0.99,0,1.37l-1.96,1.96h9.73C14.11,3.655,14.56,4.105,14.56,4.655z"/>
</g>
</svg>
