<?xml version="1.0" encoding="utf-8"?>
<!-- Generator: Adobe Illustrator 17.0.0, SVG Export Plug-In . SVG Version: 6.00 Build 0)  -->
<!DOCTYPE svg PUBLIC "-//W3C//DTD SVG 1.1//EN" "http://www.w3.org/Graphics/SVG/1.1/DTD/svg11.dtd">
<svg version="1.1" id="Layer_1" xmlns="http://www.w3.org/2000/svg" xmlns:xlink="http://www.w3.org/1999/xlink" x="0px" y="0px"
	 width="15.062px" height="21.636px" viewBox="0 0 15.062 21.636" enable-background="new 0 0 15.062 21.636" xml:space="preserve">
<g id="chips_icon_1_">
	<g>
		<g>
			<path fill="#ED1C24" d="M13.567,21.511H1.632L0.14,8.22h2.512L2.73,8.332c0.018,0.025,1.815,2.552,4.612,2.552
				c1.653,0,3.343-0.87,5.021-2.585L12.44,8.22h2.483L13.567,21.511z M2.098,20.99h10.999l1.25-12.249h-1.688
				c-1.755,1.768-3.543,2.664-5.316,2.664c-2.754,0-4.557-2.139-4.958-2.664H0.723L2.098,20.99z"/>
			<path fill="#ED1C24" d="M13.68,21.636H1.52l-0.012-0.111L0,8.095h2.717L2.833,8.26c0.018,0.025,1.782,2.499,4.51,2.499
				c1.619,0,3.278-0.857,4.932-2.548l0.113-0.116h2.674l-0.014,0.138L13.68,21.636z M1.744,21.386h11.71l1.331-13.042h-2.292
				l-0.04,0.041c-1.702,1.741-3.422,2.623-5.11,2.623c-2.877,0-4.697-2.58-4.715-2.606L2.587,8.345H0.279L1.744,21.386z
				 M13.209,21.115H1.986l-0.012-0.111L0.583,8.616h1.863l0.037,0.049c0.334,0.437,2.136,2.615,4.859,2.615
				c1.738,0,3.497-0.884,5.228-2.627l0.037-0.037h1.878l-0.014,0.138L13.209,21.115z M2.209,20.865h10.774l1.225-11.999H12.71
				c-1.768,1.768-3.574,2.664-5.368,2.664c-2.702,0-4.482-1.977-5.02-2.664h-1.46L2.209,20.865z"/>
		</g>
	</g>
	<g id="chips_icon">
		<g>
			<g>
				<path fill="none" stroke="#000000" stroke-width="2" stroke-miterlimit="10" d="M5.656,9.354"/>
			</g>
		</g>
		<g>
			<g>
				<rect x="8.296" y="9.524" width="0.486" height="0.447"/>
			</g>
		</g>
		<g>
			<g>
				<rect x="5.574" y="9.412" width="0.486" height="0.559"/>
			</g>
		</g>
		<g>
			<g>
				<g>
					<polygon fill="#ED1C24" points="8.782,9.971 8.296,9.971 8.296,3.408 6.06,3.408 6.06,9.971 5.574,9.971 5.574,2.922 
						8.782,2.922 					"/>
				</g>
			</g>
			<g>
				<g>
					<polygon fill="#ED1C24" points="13.914,7.267 13.452,7.114 13.775,6.139 11.421,5.361 11.569,4.898 11.798,4.971 14.389,5.831 
											"/>
				</g>
			</g>
			<g>
				<g>
					<path fill="none" stroke="#000000" stroke-width="2" stroke-miterlimit="10" d="M11.49,7.871"/>
				</g>
			</g>
			<g>
				<g>
					<polygon fill="#ED1C24" points="1.152,7.267 0.677,5.831 2.508,5.224 2.66,5.686 1.292,6.139 1.614,7.114 					"/>
				</g>
			</g>
			<g>
				<g>
					<polygon fill="#ED1C24" points="12.332,0.28 11.662,7.99 11.422,7.97 11.172,7.94 11.802,0.72 9.582,0.52 8.782,9.62 
						8.542,9.6 8.302,9.58 9.142,0 					"/>
				</g>
			</g>
			<g>
				<g>
					<polygon fill="#ED1C24" points="6.062,9.5 5.822,9.52 5.552,9.31 4.792,0.6 2.562,0.79 3.142,7.34 3.012,7.35 3.012,7.6 
						2.672,7.6 2.042,0.35 5.232,0.07 					"/>
					<polygon points="5.822,9.52 5.572,9.55 5.552,9.31 					"/>
				</g>
			</g>
		</g>
	</g>
</g>
</svg>
