<?xml version="1.0" encoding="utf-8"?>
<!-- Generator: Adobe Illustrator 17.0.0, SVG Export Plug-In . SVG Version: 6.00 Build 0)  -->
<!DOCTYPE svg PUBLIC "-//W3C//DTD SVG 1.1//EN" "http://www.w3.org/Graphics/SVG/1.1/DTD/svg11.dtd">
<svg version="1.1" id="Layer_1" xmlns="http://www.w3.org/2000/svg" xmlns:xlink="http://www.w3.org/1999/xlink" x="0px" y="0px"
	 width="22.972px" height="22.971px" viewBox="0 0 22.972 22.971" enable-background="new 0 0 22.972 22.971" xml:space="preserve">
<path fill="#EF4546" d="M18.532,15.867l-4.38-4.38l4.381-4.381c0.707-0.708,0.707-1.86-0.001-2.567l-0.099-0.099
	c-0.708-0.708-1.859-0.708-2.567,0l-4.38,4.38L7.106,4.439C6.398,3.733,5.246,3.733,4.539,4.44L4.44,4.539
	c-0.708,0.708-0.708,1.859,0,2.567l4.38,4.38l-4.38,4.38c-0.708,0.708-0.708,1.859,0,2.566l0.099,0.099
	c0.708,0.708,1.859,0.708,2.567,0l4.38-4.38l4.38,4.38c0.708,0.708,1.859,0.708,2.567,0l0.099-0.099
	C19.239,17.726,19.239,16.575,18.532,15.867z"/>
</svg>
