<?xml version="1.0" encoding="utf-8"?>
<!-- Generator: Adobe Illustrator 17.0.0, SVG Export Plug-In . SVG Version: 6.00 Build 0)  -->
<!DOCTYPE svg PUBLIC "-//W3C//DTD SVG 1.0//EN" "http://www.w3.org/TR/2001/REC-SVG-20010904/DTD/svg10.dtd">
<svg version="1.0" id="Layer_1" xmlns="http://www.w3.org/2000/svg" xmlns:xlink="http://www.w3.org/1999/xlink" x="0px" y="0px"
	 width="22.535px" height="27.825px" viewBox="0 0 22.535 27.825" enable-background="new 0 0 22.535 27.825" xml:space="preserve">
<g id="rounded_user">
	<g>
		<path fill="#EB2629" d="M11.267,2.761c1.961,0,3.556,1.651,3.556,3.68s-1.595,3.68-3.556,3.68S7.711,8.47,7.711,6.441
			S9.307,2.761,11.267,2.761 M11.267,0C7.779,0,4.95,2.884,4.95,6.441c0,3.557,2.828,6.441,6.317,6.441
			c3.489,0,6.317-2.884,6.317-6.441C17.584,2.884,14.756,0,11.267,0L11.267,0z"/>
	</g>
	<g>
		<path fill="#EB2629" d="M15.14,17.121c2.459,0,4.537,1.797,4.537,3.923c0,2.127-2.078,3.923-4.537,3.923H7.394
			c-2.459,0-4.537-1.797-4.537-3.923c0-2.127,2.078-3.923,4.537-3.923H15.14 M15.14,14.263H7.394C3.327,14.263,0,17.315,0,21.044
			c0,3.73,3.327,6.781,7.394,6.781h7.746c4.067,0,7.394-3.051,7.394-6.781C22.535,17.315,19.207,14.263,15.14,14.263L15.14,14.263z"
			/>
	</g>
</g>
</svg>
