<?xml version="1.0" encoding="utf-8"?>
<!-- Generator: Adobe Illustrator 17.0.0, SVG Export Plug-In . SVG Version: 6.00 Build 0)  -->
<!DOCTYPE svg PUBLIC "-//W3C//DTD SVG 1.0//EN" "http://www.w3.org/TR/2001/REC-SVG-20010904/DTD/svg10.dtd">
<svg version="1.0" id="Layer_1" xmlns="http://www.w3.org/2000/svg" xmlns:xlink="http://www.w3.org/1999/xlink" x="0px" y="0px"
	 width="20.989px" height="23.791px" viewBox="0 0 20.989 23.791" style="enable-background:new 0 0 20.989 23.791;"
	 xml:space="preserve">
<g>
	<path style="fill:#F00005;" d="M15.078,17.848l0.517,0.128c-0.369,0.716-1.127,1.687-2.601,2.289
		c0.078,0.61-0.354,1.276-1.077,1.595c-0.851,0.376-1.779,0.121-2.084-0.56c-0.298-0.68,0.149-1.538,0.999-1.914
		c0.631-0.276,1.297-0.213,1.729,0.113c1.9-0.737,2.41-2.133,2.516-2.516V17.848z"/>
	<path style="fill:#F00005;" d="M20.535,14.027c0,2.566-1.396,4.09-3.75,4.09c-0.574,0-0.999-0.092-1.049-0.106l-0.142-0.035
		c0.269-0.503,0.354-0.886,0.361-0.929l-0.851-0.163c0,0.007-0.007,0.043-0.028,0.099v-6.826l0.255-0.057l0.418-0.092
		c0.035-0.014,0.291-0.071,0.666-0.085c-0.418-3.764-2.864-6.464-6.025-6.464c-3.154,0-5.521,2.651-5.926,6.457
		c0.39,0.021,0.659,0.078,0.695,0.092l0.673,0.149v7.698l-0.659,0.156c-0.05,0.014-0.475,0.106-1.049,0.106
		c-2.353,0-3.757-1.524-3.757-4.09c0-2.013,0.865-3.388,2.382-3.898c0.369-4.834,3.523-8.371,7.641-8.371
		c4.168,0,7.379,3.537,7.754,8.371C19.671,10.632,20.535,12.014,20.535,14.027z"/>
	<path style="fill:#F00005;" d="M15.957,17.047c-0.007,0.043-0.092,0.425-0.361,0.929l-0.517-0.128v-0.865
		c0.021-0.057,0.028-0.092,0.028-0.099L15.957,17.047z"/>
	<g>
		<path style="fill:#F00005;" d="M15.333,10.101l-0.255,0.057c0.021-0.057,0.028-0.092,0.028-0.099L15.333,10.101z"/>
	</g>
</g>
</svg>
