<?xml version="1.0" encoding="utf-8"?>
<!-- Generator: Adobe Illustrator 17.0.0, SVG Export Plug-In . SVG Version: 6.00 Build 0)  -->
<!DOCTYPE svg PUBLIC "-//W3C//DTD SVG 1.0//EN" "http://www.w3.org/TR/2001/REC-SVG-20010904/DTD/svg10.dtd">
<svg version="1.0" xmlns="http://www.w3.org/2000/svg" xmlns:xlink="http://www.w3.org/1999/xlink" x="0px" y="0px" width="30px"
	 height="30px" viewBox="0 0 30 30" enable-background="new 0 0 30 30" xml:space="preserve">
<g id="Rocket_BG">
</g>
<g id="progress">
</g>
<g id="fire_1_">
</g>
<g id="rocket">
</g>
<g id="BG">
	<g id="Dashboard_line_icon">
		<g>
			<path fill="#F00005" d="M17.562,23.213c0,1.423-1.146,2.568-2.564,2.568c-1.418,0-2.568-1.146-2.568-2.568
				c0-1.116,0.953-1.838,0.953-1.838c0.415-0.319,0.755-1.007,0.755-1.532v-7.504c0-0.52,0.39-0.953,0.86-0.953
				c0.466,0,0.856,0.432,0.856,0.953v7.504c0,0.52,0.34,1.209,0.755,1.532C16.609,21.375,17.562,22.096,17.562,23.213z"/>
			<path fill="#F00005" d="M26.404,15.621c0,0.117-0.004,0.239-0.004,0.353c-0.021,0.529-0.453,0.944-0.978,0.944h-0.029
				c-0.537-0.013-0.961-0.466-0.944-1.003c0.004-0.097,0.004-0.193,0.004-0.294c0-5.212-4.243-9.451-9.455-9.451
				c-5.212,0-9.455,4.239-9.455,9.451c0,0.537-0.436,0.974-0.974,0.974c-0.537,0-0.974-0.436-0.974-0.974
				c0-6.291,5.112-11.402,11.402-11.402C21.285,4.219,26.404,9.33,26.404,15.621z"/>
		</g>
		<g>
			<path fill="#F00005" d="M15,30C6.729,30,0,23.271,0,15C0,6.729,6.729,0,15,0s15,6.729,15,15C30,23.271,23.271,30,15,30z
				 M15,2.098C7.886,2.098,2.098,7.886,2.098,15c0,7.114,5.788,12.902,12.902,12.902S27.902,22.114,27.902,15
				C27.902,7.886,22.114,2.098,15,2.098z"/>
		</g>
	</g>
</g>
<g id="star">
</g>
<g id="Trash_body_1_">
</g>
<g id="Trash_corver_1_">
</g>
</svg>
