<?xml version="1.0" encoding="utf-8"?>
<!-- Generator: Adobe Illustrator 17.0.0, SVG Export Plug-In . SVG Version: 6.00 Build 0)  -->
<!DOCTYPE svg PUBLIC "-//W3C//DTD SVG 1.1//EN" "http://www.w3.org/Graphics/SVG/1.1/DTD/svg11.dtd">
<svg version="1.1" id="Layer_1" xmlns="http://www.w3.org/2000/svg" xmlns:xlink="http://www.w3.org/1999/xlink" x="0px" y="0px"
	 width="15.973px" height="21.883px" viewBox="0 0 15.973 21.883" enable-background="new 0 0 15.973 21.883" xml:space="preserve">
<g id="drinks_icon">
	<g>
		<path fill="#ED1C24" d="M15.256,13.697c1.485-2.893-1.036-7.631-1.145-7.832l-0.072-0.134H9.456L9.383,5.865
			c-0.108,0.201-2.63,4.94-1.145,7.832c0.572,1.114,1.665,1.799,3.248,2.026v4.414c-0.098,0.021-0.191,0.052-0.273,0.093
			l-0.423,0.237c-0.232,0.129-0.65,0.299-0.907,0.371l-1.052,0.294c-0.124,0.036-0.361,0.103-0.33,0.304
			c0.026,0.196,0.263,0.196,0.392,0.196l5.698-0.026c0.134,0,0.376,0,0.402-0.201c0.026-0.196-0.211-0.258-0.335-0.294l-0.985-0.258
			c-0.258-0.067-0.675-0.232-0.907-0.366l-0.474-0.258c-0.083-0.046-0.18-0.077-0.289-0.093v-4.414
			C13.591,15.497,14.684,14.816,15.256,13.697z M12.116,20.555l0.469,0.258c0.263,0.144,0.706,0.325,0.995,0.397l0.124,0.036
			L9.75,21.261l0.232-0.067c0.289-0.077,0.732-0.263,0.99-0.407l0.423-0.232c0.088-0.052,0.222-0.083,0.361-0.083
			C11.895,20.473,12.023,20.503,12.116,20.555z M11.817,15.234l-0.067,0.01l-0.077-0.01c-1.469-0.191-2.47-0.784-2.975-1.774
			c-1.232-2.392,0.675-6.425,1.067-7.213h3.96c0.397,0.789,2.305,4.816,1.072,7.213C14.292,14.45,13.287,15.043,11.817,15.234z"/>
	</g>
	<g>
		<rect x="9.491" y="11.004" fill="#ED1C24" width="4.512" height="0.516"/>
	</g>
	<path fill="none" stroke="#000000" stroke-width="3" stroke-miterlimit="10" d="M0.531,7.084"/>
	<g>
		<path fill="#ED1C24" d="M4.85,3.652H2.164V0H4.85V3.652z M2.594,3.223H4.42V0.43H2.594V3.223z"/>
	</g>
	<g>
		<path fill="#ED1C24" d="M5.939,21.559H1.074c-0.454,0-0.824-0.37-0.824-0.824V4.883c0-0.455,0.37-0.824,0.824-0.824h4.865
			c0.454,0,0.824,0.37,0.824,0.824v15.852C6.764,21.189,6.394,21.559,5.939,21.559z M1.074,4.621c-0.145,0-0.262,0.117-0.262,0.262
			v15.852c0,0.145,0.117,0.262,0.262,0.262h4.865c0.145,0,0.262-0.117,0.262-0.262V4.883c0-0.145-0.117-0.262-0.262-0.262H1.074z"/>
	</g>
	<path fill="none" stroke="#000000" stroke-width="3" stroke-miterlimit="10" d="M0.531,7.184"/>
	<g>
		<polygon fill="#ED1C24" points="4.441,16.735 1.326,16.735 1.326,16.305 4.012,16.305 4.012,10.02 1.326,10.02 1.326,9.59 
			4.441,9.59 		"/>
	</g>
</g>
</svg>
