<?xml version="1.0" encoding="utf-8"?>
<!-- Generator: Adobe Illustrator 17.0.0, SVG Export Plug-In . SVG Version: 6.00 Build 0)  -->
<!DOCTYPE svg PUBLIC "-//W3C//DTD SVG 1.1//EN" "http://www.w3.org/Graphics/SVG/1.1/DTD/svg11.dtd">
<svg version="1.1" id="Layer_1" xmlns="http://www.w3.org/2000/svg" xmlns:xlink="http://www.w3.org/1999/xlink" x="0px" y="0px"
	 width="29.959px" height="18.406px" viewBox="0 0 29.959 18.406" enable-background="new 0 0 29.959 18.406" xml:space="preserve">
<g id="food_icon">
	<path fill="#ED1C24" d="M0,11.133v0.981h2.463c0.097,5.668,5.129,6.289,5.196,6.293h1.61l11.586-0.004h1.494
		c0.049-0.004,5.054-0.636,5.151-6.289h2.459v-0.981H0z M22.304,17.526L7.712,17.53c-0.176-0.019-4.283-0.58-4.369-5.417h23.273
		C26.53,16.935,22.457,17.504,22.304,17.526z"/>
	<g>
		<g>
			<path fill="#ED1C24" d="M9.223,2.068c0.936-1.289,2.142-1.59,3.326-0.419c0.328,0.325,0.738,0.458,1.174,0.533
				c0.961,0.165,1.858-0.994,2.555-1.431c1.673-1.049,1.964,2.322,2.647,2.967c0.161,0.152,0.571,0.318,0.79,0.3
				c0.517-0.041,0.427-0.02,0.929-0.188c1.131-0.378,3.089,0.074,2.794,1.772c-0.055,0.319,0.432,0.455,0.487,0.134
				c0.253-1.452-1.02-2.692-2.456-2.704c-0.815-0.007-1.693,1.184-2.515-0.059c-0.254-0.383-0.298-1.009-0.401-1.452
				c-0.136-0.587-0.401-1.011-0.923-1.304c-2.097-1.177-3.001,2.911-5.264,0.523c-1.22-1.288-2.784-0.023-3.58,1.073
				C8.595,2.077,9.034,2.329,9.223,2.068L9.223,2.068z"/>
		</g>
		<g>
			<path fill="#ED1C24" d="M14.644,10.021c0.13-0.819,0.201-4.463,1.709-3.515c1.335,0.839,2.258,2.351,3.343,3.468
				c0.119-0.119,0.238-0.238,0.357-0.357c-0.079-0.079-0.159-0.159-0.238-0.238c-0.231-0.231-0.588,0.127-0.357,0.357
				c0.079,0.079,0.159,0.159,0.238,0.238c0.231,0.231,0.584-0.123,0.357-0.357c-0.716-0.737-1.36-1.543-2.063-2.293
				c-0.45-0.48-1.252-1.497-2.003-1.51c-1.781-0.03-1.644,2.895-1.83,4.073C14.106,10.205,14.593,10.342,14.644,10.021
				L14.644,10.021z"/>
		</g>
		<path fill="#ED1C24" d="M26.004,9.352c0,0.296-0.064,0.576-0.183,0.827h-3.601c-0.116-0.251-0.18-0.532-0.18-0.827
			c0-1.093,0.887-1.98,1.98-1.98C25.117,7.372,26.004,8.259,26.004,9.352z"/>
		<g>
			<path fill="#ED1C24" d="M11.44,10.012l-0.605-0.441c0.476-0.653,0.727-1.427,0.727-2.238c0-2.097-1.706-3.803-3.803-3.803
				c-2.097,0-3.803,1.706-3.803,3.803c0,0.804,0.248,1.574,0.717,2.225L4.065,9.997c-0.562-0.779-0.859-1.7-0.859-2.662
				c0-2.51,2.042-4.552,4.552-4.552s4.552,2.042,4.552,4.552C12.31,8.304,12.009,9.23,11.44,10.012z"/>
		</g>
		<g>
			<g>
				<defs>
					<path id="SVGID_1_" d="M7.009,9.061c0,0.41,0.335,0.743,0.749,0.743c0.414,0,0.749-0.332,0.749-0.743
						c0-0.408-0.389-0.874-0.597-1.117c-0.077-0.09-0.22-0.086-0.298,0.004C7.393,8.197,7.009,8.688,7.009,9.061z"/>
				</defs>
				<use xlink:href="#SVGID_1_"  overflow="visible" fill="#ED1C24"/>
				<clipPath id="SVGID_2_">
					<use xlink:href="#SVGID_1_"  overflow="visible"/>
				</clipPath>
			</g>
		</g>
		<g>
			<g>
				<defs>
					<path id="SVGID_3_" d="M9.47,8.114c0.41,0.007,0.748-0.322,0.755-0.736c0.007-0.413-0.319-0.754-0.729-0.762
						C9.088,6.61,8.615,6.991,8.369,7.195C8.278,7.271,8.28,7.413,8.368,7.493C8.612,7.715,9.097,8.108,9.47,8.114z"/>
				</defs>
				<use xlink:href="#SVGID_3_"  overflow="visible" fill="#ED1C24"/>
				<clipPath id="SVGID_4_">
					<use xlink:href="#SVGID_3_"  overflow="visible"/>
				</clipPath>
			</g>
		</g>
		<g>
			<g>
				<defs>
					<path id="SVGID_5_" d="M8.566,5.637c0.014-0.41-0.309-0.754-0.723-0.768C7.43,4.855,7.084,5.175,7.069,5.585
						C7.055,5.993,7.428,6.472,7.628,6.722c0.074,0.093,0.217,0.093,0.298,0.007C8.152,6.488,8.553,6.01,8.566,5.637z"/>
				</defs>
				<use xlink:href="#SVGID_5_"  overflow="visible" fill="#ED1C24"/>
				<clipPath id="SVGID_6_">
					<use xlink:href="#SVGID_5_"  overflow="visible"/>
				</clipPath>
			</g>
		</g>
		<g>
			<g>
				<defs>
					<path id="SVGID_7_" d="M6.074,6.498c-0.41-0.021-0.759,0.296-0.781,0.709C5.272,7.62,5.586,7.972,5.996,7.994
						c0.407,0.021,0.893-0.343,1.146-0.538C7.236,7.383,7.239,7.24,7.154,7.157C6.917,6.927,6.446,6.517,6.074,6.498z"/>
				</defs>
				<use xlink:href="#SVGID_7_"  overflow="visible" fill="#ED1C24"/>
				<clipPath id="SVGID_8_">
					<use xlink:href="#SVGID_7_"  overflow="visible"/>
				</clipPath>
			</g>
		</g>
	</g>
</g>
</svg>
