<?xml version="1.0" encoding="utf-8"?>
<!-- Generator: Adobe Illustrator 17.0.0, SVG Export Plug-In . SVG Version: 6.00 Build 0)  -->
<!DOCTYPE svg PUBLIC "-//W3C//DTD SVG 1.1//EN" "http://www.w3.org/Graphics/SVG/1.1/DTD/svg11.dtd">
<svg version="1.1" id="Layer_1" xmlns="http://www.w3.org/2000/svg" xmlns:xlink="http://www.w3.org/1999/xlink" x="0px" y="0px"
	 width="19.922px" height="19.657px" viewBox="0 0 19.922 19.657" enable-background="new 0 0 19.922 19.657" xml:space="preserve">
<g>
	<path fill="#F00005" d="M19.707,11.889c0,2.483-1.346,3.954-3.621,3.954c-0.555,0-0.971-0.09-1.013-0.104l-0.139-0.035
		c-0.361,0.694-1.089,1.637-2.518,2.213c0.076,0.59-0.34,1.235-1.04,1.547c-0.818,0.361-1.72,0.118-2.012-0.541
		c-0.291-0.659,0.146-1.491,0.964-1.852c0.61-0.271,1.255-0.208,1.672,0.111c1.838-0.714,2.331-2.067,2.435-2.435V8.15l0.243-0.055
		l0.402-0.09c0.035-0.014,0.284-0.069,0.645-0.083c-0.402-3.635-2.768-6.25-5.82-6.25c-3.052,0-5.341,2.566-5.729,6.243
		c0.375,0.021,0.638,0.076,0.673,0.09L5.494,8.15v7.443l-0.638,0.146c-0.042,0.014-0.458,0.104-1.013,0.104
		c-2.275,0-3.628-1.471-3.628-3.954c0-1.942,0.832-3.274,2.303-3.766c0.354-4.675,3.406-8.095,7.387-8.095
		c4.023,0,7.131,3.42,7.491,8.095C18.874,8.608,19.707,9.946,19.707,11.889z"/>
</g>
</svg>
