<?xml version="1.0" encoding="utf-8"?>
<!-- Generator: Adobe Illustrator 17.0.0, SVG Export Plug-In . SVG Version: 6.00 Build 0)  -->
<!DOCTYPE svg PUBLIC "-//W3C//DTD SVG 1.1//EN" "http://www.w3.org/Graphics/SVG/1.1/DTD/svg11.dtd">
<svg version="1.1" id="Layer_1" xmlns="http://www.w3.org/2000/svg" xmlns:xlink="http://www.w3.org/1999/xlink" x="0px" y="0px"
	 width="19.922px" height="19.657px" viewBox="0 0 19.922 19.657" enable-background="new 0 0 19.922 19.657" xml:space="preserve">
<g id="home_icon">
	<g>
		<g>
			<path fill="#EB2227" stroke="#ED1C24" stroke-width="0.6543" stroke-miterlimit="10" d="M16.373,18.643H12.83
				c-0.279,0-0.506-0.214-0.506-0.476v-4.274H7.706v4.274c0,0.263-0.227,0.476-0.506,0.476H3.657c-0.279,0-0.506-0.214-0.506-0.476
				v-7.752c0-0.132,0.113-0.238,0.253-0.238c0.14,0,0.253,0.107,0.253,0.238v7.751h3.544v-4.274c0-0.263,0.227-0.476,0.506-0.476
				h4.617c0.279,0,0.506,0.214,0.506,0.476v4.274h3.544v-7.751c0-0.132,0.113-0.238,0.253-0.238c0.14,0,0.253,0.107,0.253,0.238
				v7.751C16.88,18.429,16.653,18.643,16.373,18.643z"/>
			<path fill="#EB2227" stroke="#ED1C24" stroke-width="0.6543" stroke-miterlimit="10" d="M16.373,18.881H12.83
				c-0.419,0-0.759-0.321-0.759-0.715v-4.036H7.96v4.036c0,0.395-0.341,0.715-0.759,0.715H3.657c-0.419,0-0.759-0.321-0.759-0.715
				v-7.751c0-0.263,0.227-0.476,0.506-0.476c0.279,0,0.506,0.214,0.506,0.476v7.513h3.037v-4.036c0-0.395,0.341-0.715,0.759-0.715
				h4.617c0.419,0,0.759,0.321,0.759,0.715v4.036h3.038v-7.513c0-0.263,0.227-0.476,0.506-0.476s0.506,0.214,0.506,0.715v7.751
				C17.133,18.561,16.792,18.881,16.373,18.881z M12.83,18.405h3.544H12.83z M3.657,18.405h3.544H3.657z M7.454,13.893v4.274V13.893
				z M7.707,13.655h4.617H7.707z"/>
		</g>
	</g>
	<g>
		<g>
			<path fill="#EB2227" stroke="#ED1C24" stroke-width="0.6543" stroke-miterlimit="10" d="M18.816,9.69
				c-0.061,0-0.122-0.022-0.171-0.069l-8.501-8.024C10.083,1.54,9.972,1.54,9.91,1.596L1.274,9.613
				C1.171,9.71,1.01,9.701,0.917,9.594c-0.094-0.107-0.085-0.273,0.019-0.37l8.637-8.017c0.257-0.238,0.658-0.235,0.912,0.005
				l8.502,8.024c0.103,0.097,0.111,0.263,0.016,0.37C18.952,9.662,18.884,9.69,18.816,9.69z"/>
			<path fill="#EB2227" stroke="#ED1C24" stroke-width="0.6543" stroke-miterlimit="10" d="M18.816,9.952
				c-0.127,0-0.249-0.049-0.342-0.137l-8.448-7.973L1.443,9.808c-0.198,0.185-0.535,0.168-0.714-0.04
				C0.542,9.553,0.559,9.222,0.767,9.029l8.636-8.017c0.343-0.317,0.913-0.313,1.252,0.006l8.502,8.024
				c0.1,0.094,0.158,0.223,0.165,0.362c0.006,0.14-0.041,0.273-0.132,0.377C19.094,9.889,18.958,9.952,18.816,9.952z M18.816,9.429
				V9.69V9.429L18.816,9.429z M10.026,1.292c-0.107,0-0.208,0.039-0.285,0.11L1.105,9.419l8.636-8.017
				c0.148-0.135,0.397-0.141,0.55-0.018C10.217,1.324,10.124,1.292,10.026,1.292z"/>
		</g>
	</g>
	<g>
		<g>
			<g>
				<g>
					<g>
						<g>
							<path fill="#EB2227" d="M17.058,2v2.362c0.007,0.105-0.039,0.216-0.111,0.301c-0.079,0.085-0.183,0.137-0.294,0.144h-0.02
								c-0.111,0-0.216-0.046-0.301-0.131c-0.072-0.079-0.118-0.183-0.118-0.294V2.379l-1.858,0.013
								c-0.131-0.007-0.242-0.059-0.314-0.144c-0.079-0.092-0.118-0.203-0.111-0.314c0.02-0.236,0.203-0.412,0.425-0.412l2.205-0.02
								C16.836,1.516,17.045,1.732,17.058,2z"/>
							<path fill="#ED1C24" d="M16.662,5.134h-0.029c-0.197,0-0.386-0.08-0.532-0.227c-0.142-0.153-0.214-0.336-0.214-0.525V2.709
								l-1.528,0.01c-0.239-0.012-0.434-0.104-0.566-0.259c-0.132-0.154-0.2-0.348-0.188-0.545c0.035-0.414,0.358-0.72,0.752-0.72
								l2.201-0.02c0.457,0.021,0.805,0.368,0.828,0.808l0.001,2.378c0.011,0.164-0.058,0.357-0.188,0.512
								c-0.147,0.16-0.33,0.248-0.525,0.26L16.662,5.134z M16.541,2.05v2.331c0,0.025,0.012,0.051,0.031,0.073
								c0.026,0.026,0.052,0.026,0.06,0.026l0.02,0.327l-0.02-0.326c0.026-0.001,0.052-0.016,0.073-0.039
								c0.016-0.02,0.026-0.05,0.026-0.06L16.731,2c-0.005-0.087-0.083-0.166-0.186-0.17l-2.186,0.02
								c-0.056,0-0.097,0.047-0.103,0.113c-0.001,0.018,0.011,0.047,0.033,0.073c0.012,0.014,0.039,0.028,0.083,0.031L16.541,2.05z"
								/>
						</g>
					</g>
				</g>
			</g>
		</g>
	</g>
</g>
</svg>
