<?xml version="1.0" encoding="utf-8"?>
<!-- Generator: Adobe Illustrator 17.0.0, SVG Export Plug-In . SVG Version: 6.00 Build 0)  -->
<!DOCTYPE svg PUBLIC "-//W3C//DTD SVG 1.1//EN" "http://www.w3.org/Graphics/SVG/1.1/DTD/svg11.dtd">
<svg version="1.1" id="Layer_1" xmlns="http://www.w3.org/2000/svg" xmlns:xlink="http://www.w3.org/1999/xlink" x="0px" y="0px"
	 width="19.922px" height="19.657px" viewBox="0 0 19.922 19.657" enable-background="new 0 0 19.922 19.657" xml:space="preserve">
<g>
	<g>
		<g>
			<path fill="#ED1C24" d="M16.305,4.083v14.134H3.617V4.083H16.305 M17.42,2.693H2.502c-0.204,0-0.372,0.156-0.372,0.348v16.22
				c0,0.191,0.167,0.348,0.372,0.348H17.42c0.204,0,0.372-0.156,0.372-0.348V3.041C17.792,2.849,17.625,2.693,17.42,2.693
				L17.42,2.693z"/>
		</g>
	</g>
	<rect x="6.073" y="2.698" fill="#ED1C24" width="7.932" height="2.958"/>
	<g>
		<ellipse fill="#FFFFFF" cx="9.962" cy="2.747" rx="1.985" ry="1.992"/>
		<path fill="#ED1C24" d="M9.962,1.461c0.708,0,1.282,0.576,1.282,1.287S10.67,4.034,9.962,4.034S8.68,3.458,8.68,2.747
			C8.679,2.037,9.253,1.461,9.962,1.461 M9.962,0.05c-1.482,0-2.689,1.211-2.689,2.698s1.206,2.698,2.688,2.698
			c1.482,0,2.688-1.211,2.688-2.698S11.444,0.05,9.962,0.05L9.962,0.05z"/>
	</g>
	<g>
		<path fill="#ED1C24" d="M14.524,8.551c0,0.191-0.167,0.348-0.372,0.348H5.726c-0.204,0-0.372-0.156-0.372-0.348V7.566
			c0-0.191,0.167-0.348,0.372-0.348h8.426c0.204,0,0.372,0.156,0.372,0.348V8.551z"/>
	</g>
	<g>
		<path fill="#ED1C24" d="M13.595,12.077c0,0.191-0.167,0.348-0.372,0.348H5.726c-0.204,0-0.372-0.156-0.372-0.348v-0.985
			c0-0.191,0.167-0.348,0.372-0.348h7.497c0.204,0,0.372,0.156,0.372,0.348L13.595,12.077z"/>
	</g>
	<g>
		<path fill="#ED1C24" d="M12.015,15.987c0,0.191-0.167,0.348-0.372,0.348H5.95c-0.204,0-0.372-0.156-0.372-0.348v-0.985
			c0-0.191,0.167-0.348,0.372-0.348h5.693c0.204,0,0.372,0.156,0.372,0.348L12.015,15.987z"/>
	</g>
</g>
</svg>
