<?xml version="1.0" encoding="utf-8"?>
<!-- Generator: Adobe Illustrator 17.0.0, SVG Export Plug-In . SVG Version: 6.00 Build 0)  -->
<!DOCTYPE svg PUBLIC "-//W3C//DTD SVG 1.1//EN" "http://www.w3.org/Graphics/SVG/1.1/DTD/svg11.dtd">
<svg version="1.1" id="Layer_1" xmlns="http://www.w3.org/2000/svg" xmlns:xlink="http://www.w3.org/1999/xlink" x="0px" y="0px"
	 width="21.065px" height="28.022px" viewBox="0 0 21.065 28.022" enable-background="new 0 0 21.065 28.022" xml:space="preserve">
<g>
	<g>
		<g>
			<path fill="#ED1C24" d="M19.065,5.689v20.333H2V5.689H19.065 M20.565,3.689H0.5c-0.275,0-0.5,0.225-0.5,0.5v23.333
				c0,0.275,0.225,0.5,0.5,0.5h20.065c0.275,0,0.5-0.225,0.5-0.5V4.189C21.065,3.914,20.84,3.689,20.565,3.689L20.565,3.689z"/>
		</g>
	</g>
	<rect x="5.199" y="3.696" fill="#ED1C24" width="10.668" height="4.256"/>
	<g>
		<circle fill="#FFFFFF" cx="10.533" cy="3.824" r="2.824"/>
		<path fill="#ED1C24" d="M10.533,2c1.007,0,1.824,0.817,1.824,1.824c0,1.007-0.817,1.824-1.824,1.824
			c-1.007,0-1.824-0.817-1.824-1.824C8.708,2.817,9.525,2,10.533,2 M10.533,0C8.424,0,6.708,1.716,6.708,3.824
			s1.716,3.824,3.824,3.824c2.109,0,3.824-1.716,3.824-3.824S12.641,0,10.533,0L10.533,0z"/>
	</g>
	<g>
		<path fill="#ED1C24" d="M16.565,11.897c0,0.275-0.225,0.5-0.5,0.5H4.732c-0.275,0-0.5-0.225-0.5-0.5v-1.417
			c0-0.275,0.225-0.5,0.5-0.5h11.333c0.275,0,0.5,0.225,0.5,0.5V11.897z"/>
	</g>
	<g>
		<path fill="#ED1C24" d="M15.315,17.189c0,0.275-0.225,0.5-0.5,0.5H4.732c-0.275,0-0.5-0.225-0.5-0.5v-1.417
			c0-0.275,0.225-0.5,0.5-0.5h10.083c0.275,0,0.5,0.225,0.5,0.5V17.189z"/>
	</g>
	<g>
		<path fill="#ED1C24" d="M13.19,22.814c0,0.275-0.225,0.5-0.5,0.5H5.033c-0.275,0-0.5-0.225-0.5-0.5v-1.417
			c0-0.275,0.225-0.5,0.5-0.5h7.657c0.275,0,0.5,0.225,0.5,0.5V22.814z"/>
	</g>
</g>
</svg>
