<?xml version="1.0" encoding="utf-8"?>
<!-- Generator: Adobe Illustrator 17.0.0, SVG Export Plug-In . SVG Version: 6.00 Build 0)  -->
<!DOCTYPE svg PUBLIC "-//W3C//DTD SVG 1.1//EN" "http://www.w3.org/Graphics/SVG/1.1/DTD/svg11.dtd">
<svg version="1.1" id="Layer_1" xmlns="http://www.w3.org/2000/svg" xmlns:xlink="http://www.w3.org/1999/xlink" x="0px" y="0px"
	 width="150.48px" height="68.88px" viewBox="0 0 150.48 68.88" enable-background="new 0 0 150.48 68.88" xml:space="preserve">
<g>
	
		<image overflow="visible" opacity="0.2" width="627" height="287" xlink:href="399B0478.png"  transform="matrix(0.24 0 0 0.24 0 0)">
	</image>
	<g>
		<path fill="#FFFFFF" d="M138.33,14.138c1.1,0,2,0.9,2,2v40.61c0,1.1-0.9,2-2,2H10c-1.1,0-2-0.9-2-2v-40.61c0-1.1,0.9-2,2-2h2.98
			c1.1,0,2.603-0.668,3.341-1.484l3.618-4.003c0.738-0.816,2.002-0.873,2.811-0.127l4.611,4.257c0.808,0.746,2.37,1.357,3.47,1.357
			H138.33z"/>
	</g>
</g>
</svg>
