<?xml version="1.0" encoding="utf-8"?>
<!-- Generator: Adobe Illustrator 17.0.0, SVG Export Plug-In . SVG Version: 6.00 Build 0)  -->
<!DOCTYPE svg PUBLIC "-//W3C//DTD SVG 1.1//EN" "http://www.w3.org/Graphics/SVG/1.1/DTD/svg11.dtd">
<svg version="1.1" id="Layer_1" xmlns="http://www.w3.org/2000/svg" xmlns:xlink="http://www.w3.org/1999/xlink" x="0px" y="0px"
	 width="17.559px" height="17.565px" viewBox="0 0 17.559 17.565" enable-background="new 0 0 17.559 17.565" xml:space="preserve">
<g>
	<path fill="#CCCACA" d="M8.776,0C3.927,0,0,3.933,0,8.782c0,4.849,3.927,8.783,8.776,8.783c4.849,0,8.783-3.933,8.783-8.783
		C17.559,3.933,13.626,0,8.776,0z M10.453,12.357c0.18,0.162,0.287,0.383,0.287,0.617c0,0.227-0.108,0.449-0.287,0.611
		c-0.204,0.18-0.425,0.257-0.665,0.257c-0.233,0-0.461-0.078-0.635-0.233L4.61,9.603C4.43,9.447,4.328,9.22,4.328,8.992V8.944
		c0-0.233,0.102-0.455,0.281-0.611l4.544-4.011c0.341-0.299,0.922-0.299,1.269,0c0.21,0.186,0.317,0.413,0.317,0.641
		c0,0.233-0.108,0.449-0.287,0.611L6.609,8.968L10.453,12.357z"/>
</g>
</svg>
