<?xml version="1.0" encoding="utf-8"?>
<!-- Generator: Adobe Illustrator 17.0.0, SVG Export Plug-In . SVG Version: 6.00 Build 0)  -->
<!DOCTYPE svg PUBLIC "-//W3C//DTD SVG 1.1//EN" "http://www.w3.org/Graphics/SVG/1.1/DTD/svg11.dtd">
<svg version="1.1" id="Layer_1" xmlns="http://www.w3.org/2000/svg" xmlns:xlink="http://www.w3.org/1999/xlink" x="0px" y="0px"
	 width="17.559px" height="17.565px" viewBox="0 0 17.559 17.565" enable-background="new 0 0 17.559 17.565" xml:space="preserve">
<g>
	<path fill="#CCCACA" d="M0,8.782c0,4.849,3.933,8.783,8.783,8.783c4.849,0,8.776-3.933,8.776-8.783C17.559,3.933,13.632,0,8.783,0
		C3.933,0,0,3.933,0,8.782z M10.95,8.968L7.106,5.574c-0.18-0.162-0.287-0.377-0.287-0.611c0-0.227,0.108-0.455,0.317-0.641
		c0.347-0.299,0.928-0.299,1.269,0l4.544,4.011c0.18,0.156,0.281,0.377,0.281,0.611v0.048c0,0.227-0.102,0.455-0.281,0.611
		l-4.544,4.005c-0.174,0.156-0.401,0.233-0.635,0.233c-0.239,0-0.461-0.078-0.665-0.257c-0.18-0.162-0.287-0.383-0.287-0.611
		c0-0.233,0.108-0.455,0.287-0.617L10.95,8.968z"/>
</g>
</svg>
