<?xml version="1.0" encoding="utf-8"?>
<!-- Generator: Adobe Illustrator 17.0.0, SVG Export Plug-In . SVG Version: 6.00 Build 0)  -->
<!DOCTYPE svg PUBLIC "-//W3C//DTD SVG 1.1//EN" "http://www.w3.org/Graphics/SVG/1.1/DTD/svg11.dtd">
<svg version="1.1" id="Layer_1" xmlns="http://www.w3.org/2000/svg" xmlns:xlink="http://www.w3.org/1999/xlink" x="0px" y="0px"
	 width="10.565px" height="14.098px" viewBox="0 0 10.565 14.098" enable-background="new 0 0 10.565 14.098" xml:space="preserve">
<g>
	<g>
		<g>
			<g>
				<g>
					<path fill="#FB1F4C" stroke="#FB1F4C" stroke-width="0.5" stroke-miterlimit="10" d="M9.535,5.271H8.921V3.618
						c0-1.857-1.511-3.368-3.368-3.368H5.012c-1.857,0-3.368,1.511-3.368,3.368v1.653H1.03c-0.43,0-0.78,0.35-0.78,0.78v7.017
						c0,0.43,0.35,0.78,0.78,0.78h8.505c0.43,0,0.78-0.35,0.78-0.78V6.051C10.315,5.62,9.966,5.271,9.535,5.271z M2.4,3.618
						c0-1.44,1.172-2.612,2.612-2.612h0.541c1.44,0,2.612,1.172,2.612,2.612v1.653H2.4V3.618z M9.465,12.997H1.101V6.121h8.364
						V12.997z"/>
				</g>
			</g>
		</g>
	</g>
	<path fill="#FB1F4C" d="M5.283,7.598c-0.607,0-1.099,0.492-1.099,1.099c0,0.46,0.525,0.888,0.525,0.888
		c0.087,0.071,0.158,0.221,0.158,0.333v1.413c0,0.112,0.092,0.204,0.204,0.204h0.416c0.112,0,0.204-0.092,0.204-0.204v-1.41
		c0-0.112,0.071-0.262,0.159-0.332c0,0,0.532-0.43,0.532-0.892C6.381,8.09,5.889,7.598,5.283,7.598z M5.283,9.175
		c-0.264,0-0.478-0.214-0.478-0.478c0-0.264,0.214-0.478,0.478-0.478c0.264,0,0.478,0.214,0.478,0.478
		C5.761,8.961,5.547,9.175,5.283,9.175z"/>
</g>
</svg>
