<?xml version="1.0" encoding="utf-8"?>
<!-- Generator: Adobe Illustrator 24.0.0, SVG Export Plug-In . SVG Version: 6.00 Build 0)  -->
<svg version="1.1" id="Layer_1" xmlns="http://www.w3.org/2000/svg" xmlns:xlink="http://www.w3.org/1999/xlink" x="0px" y="0px"
	 viewBox="0 0 100 60" style="enable-background:new 0 0 100 60;" xml:space="preserve">
<style type="text/css">
	.st0{fill:#EE2C50;}
	.st1{font-family:'AishaBlush';}
	.st2{font-size:51.2171px;}
</style>
<g>
	<g>
		<g>
			<g>
				<path class="st0" d="M78.97,24.03c-0.01,0-0.02,0-0.03,0c-0.36-0.01-0.69-0.2-0.88-0.5c-1.3-2.01-2.66-2.08-3.75-2.14
					c-0.75-0.04-1.52-0.08-1.87-0.87c-0.27-0.61,0.27-1.25,0.8-1.86l0.06-0.07l0.54,0.46l-0.06,0.08c-0.29,0.34-0.78,0.91-0.69,1.1
					c0.16,0.36,0.47,0.41,1.25,0.45c1.12,0.06,2.82,0.15,4.32,2.47c0.07,0.1,0.18,0.16,0.3,0.17c0.11,0.01,0.22-0.05,0.29-0.14
					c0.33-0.45,0.53-0.94,0.64-1.28c0.04-0.11,0.01-0.23-0.07-0.31c-0.1-0.11-0.2-0.22-0.31-0.33c-0.14-0.14-0.29-0.28-0.44-0.42
					c-0.18-0.16-0.37-0.32-0.56-0.47c-0.22-0.17-0.45-0.33-0.68-0.49c-0.26-0.17-0.53-0.33-0.79-0.47c-0.3-0.16-0.6-0.3-0.9-0.42
					c-0.33-0.13-0.67-0.25-1.01-0.34c-0.16-0.04-0.32-0.08-0.48-0.11c-0.46-0.1-0.94-0.2-1.4-0.5c-0.23-0.14-0.43-0.31-0.62-0.5
					c-0.19-0.19-0.35-0.4-0.48-0.61c-0.14-0.22-0.24-0.47-0.32-0.71c-0.08-0.26-0.12-0.52-0.13-0.79c-0.01-0.28,0.02-0.56,0.09-0.85
					c0.07-0.29,0.18-0.59,0.32-0.88c0.05-0.1,0.1-0.2,0.16-0.3c1.27-2.17,3.19-1.81,4.18-1.43c1.35-1.6,3.07-1.53,4.26-0.9
					c1.33,0.7,2.4,2.29,2.14,3.9c1.19,0.03,2.3,0.73,2.92,1.87c0.77,1.43,0.54,3.14-0.6,4.47c-1.1,1.28-2.66,1.26-3.78,1.02
					l0.15-0.7c0.93,0.2,2.22,0.23,3.09-0.78c0.96-1.12,1.15-2.48,0.51-3.66c-0.56-1.04-1.63-1.62-2.7-1.48l-0.57,0.08l0.18-0.55
					c0.48-1.41-0.48-2.91-1.67-3.54c-1.27-0.67-2.59-0.33-3.53,0.92l-0.17,0.23l-0.26-0.12c-1.05-0.48-2.52-0.69-3.53,1.03
					c-0.05,0.08-0.09,0.17-0.14,0.25c-0.12,0.24-0.21,0.48-0.26,0.72c-0.05,0.22-0.08,0.45-0.07,0.67c0.01,0.21,0.04,0.41,0.1,0.61
					c0.06,0.19,0.14,0.38,0.24,0.55c0.1,0.17,0.23,0.33,0.38,0.48c0.15,0.15,0.31,0.28,0.49,0.4c0.35,0.22,0.75,0.31,1.17,0.4
					c0.17,0.04,0.34,0.07,0.52,0.12c0.37,0.1,0.73,0.22,1.09,0.36c0.33,0.13,0.65,0.28,0.97,0.45c0.29,0.15,0.57,0.32,0.85,0.5
					c0.25,0.16,0.49,0.34,0.73,0.52c0.21,0.16,0.41,0.33,0.6,0.5c0.16,0.14,0.32,0.29,0.47,0.45c0.12,0.12,0.23,0.23,0.34,0.36
					c0.25,0.28,0.33,0.67,0.21,1.02c-0.13,0.39-0.36,0.96-0.75,1.48C79.63,23.87,79.31,24.03,78.97,24.03z"/>
			</g>
			<g>
				<path class="st0" d="M79.97,21.16c-0.19,0-0.4-0.03-0.61-0.11l0.23-0.68c1.05,0.36,1.63-0.9,1.65-0.96l0.66,0.29
					C81.66,20.26,80.98,21.16,79.97,21.16z"/>
			</g>
			<g>
				<path class="st0" d="M78.79,20.24l-0.2-0.69c0.7-0.21,0.74-0.7,0.75-0.75l0.72,0.02C80.05,18.86,80.02,19.88,78.79,20.24z"/>
			</g>
			<g>
				<path class="st0" d="M81.87,16.37c-0.06,0-0.12-0.01-0.18-0.02c-0.28-0.07-0.48-0.3-0.52-0.59c-0.02-0.19,0.04-0.37,0.17-0.5
					c0.16-0.17,0.42-0.26,0.8-0.29c0.03-0.17,0.03-0.29,0.03-0.29l0.72-0.01c0,0.02,0,0.42-0.17,0.88L82.7,15.7
					c-0.01,0-0.03,0-0.04,0c-0.05,0.13-0.12,0.25-0.21,0.38C82.31,16.26,82.1,16.37,81.87,16.37z"/>
			</g>
			<g>
				<path class="st0" d="M75.23,18.63c-0.82-0.58-0.53-1.63-0.26-2.1l0.62,0.36l-0.31-0.18l0.31,0.18c-0.02,0.03-0.45,0.8,0.05,1.16
					L75.23,18.63z"/>
			</g>
			<g>
				<path class="st0" d="M76.8,13.97c-0.14,0-0.27-0.04-0.39-0.11c-0.24-0.14-0.39-0.39-0.4-0.67c-0.01-0.48,0.22-0.91,0.24-0.96
					l0.24-0.42l0.33,0.35c0.51,0.54,0.72,0.93,0.66,1.27c-0.03,0.19-0.15,0.35-0.33,0.45C77.04,13.95,76.92,13.97,76.8,13.97z
					 M76.73,13.21C76.73,13.21,76.73,13.21,76.73,13.21C76.73,13.21,76.73,13.21,76.73,13.21z"/>
			</g>
			<g>
				
					<rect x="76.55" y="8.6" transform="matrix(0.9737 -0.228 0.228 0.9737 -0.1502 17.7888)" class="st0" width="0.72" height="1.89"/>
			</g>
			<g>
				
					<rect x="81.17" y="9.91" transform="matrix(0.5123 -0.8588 0.8588 0.5123 31.2169 75.5067)" class="st0" width="1.85" height="0.72"/>
			</g>
			<g>
				
					<rect x="84.28" y="13.98" transform="matrix(0.9565 -0.2916 0.2916 0.9565 -0.4792 25.4683)" class="st0" width="1.83" height="0.72"/>
			</g>
			<g>
				<path class="st0" d="M79.59,22.48c0-0.01-0.29-0.74-1.8-1.73l0.39-0.6c1.72,1.13,2.05,2,2.08,2.1L79.59,22.48z"/>
			</g>
		</g>
	</g>
	<g>
		<text transform="matrix(1 0 0 1 17.5764 44.0205)" class="st0 st1 st2">Aisha</text>
	</g>
</g>
</svg>
