
 
<svg version="1.0" xmlns="http://www.w3.org/2000/svg" x="0px" y="0px" width="100px" height="100px" viewBox="0 0 25.932 25.932" xml:space="preserve">
            <symbol id="first" viewBox="0 0 25.932 25.932">
                <path id="dashboard" style="fill:#F00005;" d="M12.968,0C5.806,0,0,5.803,0,12.964s5.806,12.968,12.968,12.968
	            c7.161,0,12.964-5.806,12.964-12.968S20.129,0,12.968,0z M12.968,22.416c-1.318,0-2.39-1.068-2.39-2.39
	            c0-1.038,0.887-1.712,0.887-1.712c0.387-0.295,0.703-0.935,0.703-1.425V9.912c0-0.486,0.361-0.887,0.799-0.887
	            c0.434,0,0.795,0.401,0.795,0.887v6.977c0,0.486,0.317,1.127,0.703,1.425c0,0,0.887,0.674,0.887,1.712
	            C15.354,21.348,14.286,22.416,12.968,22.416z M22.662,14.172h-0.026c-0.501-0.015-0.895-0.434-0.88-0.935
	            c0.004-0.088,0.004-0.18,0.004-0.272c0-4.849-3.943-8.793-8.793-8.793c-4.849,0-8.796,3.943-8.796,8.793
	            c0,0.501-0.405,0.906-0.906,0.906S2.36,13.465,2.36,12.964c0-5.851,4.757-10.608,10.608-10.608c5.847,0,10.608,4.757,10.608,10.608
	            c0,0.11-0.004,0.221-0.004,0.328C23.553,13.785,23.152,14.172,22.662,14.172z"/>
            </symbol>

            <symbol id="third" veiwBox="0 0 30 35">
                <ellipse id="rounded_user" style="fill:#F00005;" cx="15" cy="8.102" rx="9.007" ry="8.102"/>
	            <path id="rounded_userb"  style="fill:#F00005;" d="M20.156,17.941c5.414,0,9.844,3.838,9.844,8.529S25.57,35,20.156,35H9.844
		        C4.43,35,0,31.162,0,26.471s4.43-8.529,9.844-8.529H20.156z"/>
            </symbol>

            
            <symbol id="second" viewBox="0 0 30 35">
            <path id="lock" style="fill:#F00005;" d="M26.496,11.63v-1.358C26.496,4.607,21.744,0,15.9,0h-1.812
	        C8.244,0,3.492,4.607,3.492,10.272v1.358H0V35h30V11.63H26.496z M16.884,24.005v4.785h-3.78v-4.785
	        c-1.008-0.579-1.668-1.614-1.668-2.793c0-1.825,1.596-3.305,3.564-3.305s3.564,1.48,3.564,3.305
	        C18.564,22.391,17.892,23.426,16.884,24.005z M22.788,11.63H7.2v-1.358c0-3.773,3.084-6.833,6.888-6.833H15.9
	        c3.804,0,6.888,3.06,6.888,6.833V11.63z"/>
            </symbol>

            <symbol id="last" viewBox="0 0 22.33 22.33">
                <path id="fbicon" d="M11.18,0C5.02,0,0,5.01,0,11.16c0,5.18,3.68,9.77,8.76,10.91
	            c0.76,0.17,1.58,0.26,2.42,0.26c0.33,0,0.67,0,1-0.05c5.67-0.46,10.15-5.34,10.15-11.12C22.33,5.01,17.33,0,11.18,0z M12.08,21.73
	            v-8.19h2.33v-2.55h-2.33v-0.82c0-0.63,0.09-1.01,0.31-1.24c0.16-0.19,0.49-0.33,0.96-0.33c0.43,0,0.95,0.07,1.45,0.2l0.41-2.22
	            c-0.85-0.3-1.73-0.38-2.63-0.38c-0.91,0-1.62,0.14-2.19,0.47c-0.58,0.31-0.96,0.67-1.18,1.2c-0.22,0.47-0.33,1.26-0.33,2.25v0.87
	            H7.12v2.55h1.76v8c-4.77-1.06-8.33-5.32-8.33-10.38c0-5.87,4.77-10.61,10.63-10.61c5.87,0,10.6,4.74,10.6,10.61
	            C21.78,16.72,17.51,21.29,12.08,21.73z"/>
            </symbol>
            
            <symbol id="last" viewBox="0 0 22.33 22.33">
                <g id="whatsappicon">
	                <path id="whticon" d="M17.461,9.642
		            c-0.703-2.94-3.24-4.944-6.298-4.984c-0.403,0.02-0.839,0.049-1.235,0.124C5.64,5.647,3.432,10.379,5.506,14.19
		            c0.074,0.109,0.074,0.203,0.059,0.322c-0.302,0.99-0.579,2.004-0.846,3.004c-0.045,0.173-0.045,0.173,0.121,0.129
		            c1.047-0.287,2.084-0.554,3.128-0.812c0.092-0.029,0.156-0.029,0.233,0.01c1.341,0.683,2.757,0.876,4.241,0.599
		            C15.984,16.759,18.308,13.146,17.461,9.642z M12.071,16.407c-0.309,0.055-0.599,0.084-0.745,0.064
		            c-1.141,0-2.059-0.257-2.913-0.747c-0.121-0.075-0.213-0.094-0.329-0.05c-0.584,0.139-1.153,0.297-1.732,0.445
		            c-0.119,0.034-0.131,0.01-0.104-0.104c0.153-0.535,0.297-1.079,0.465-1.633c0.037-0.148,0.027-0.267-0.067-0.381
		            c-1.17-1.91-1.119-4.251,0.191-6.023C8.201,6.157,10.074,5.4,12.299,5.88C14.494,6.34,15.9,7.766,16.4,9.953
		            C17.11,12.947,15.09,15.917,12.071,16.407z"/>
	                <path id="phone" d="M12.853,14.19
		            c-0.226,0.025-0.453-0.02-0.671-0.084c-1.478-0.435-2.596-1.341-3.494-2.569c-0.334-0.455-0.653-0.945-0.75-1.524
		            C7.803,9.345,8.013,8.745,8.52,8.29c0.168-0.163,0.661-0.238,0.861-0.129C9.446,8.216,9.483,8.266,9.525,8.33
		            c0.183,0.46,0.379,0.886,0.564,1.321c0.027,0.099,0.022,0.183-0.027,0.277c-0.099,0.203-0.25,0.361-0.396,0.535
		            c-0.124,0.104-0.124,0.222-0.04,0.351c0.53,0.886,1.245,1.524,2.205,1.895c0.139,0.055,0.245,0.035,0.332-0.074
		            c0.166-0.193,0.329-0.406,0.482-0.609c0.094-0.124,0.22-0.148,0.359-0.084c0.317,0.138,0.628,0.287,0.931,0.426
		            c0.084,0.045,0.143,0.074,0.217,0.108c0.319,0.159,0.319,0.178,0.282,0.52c-0.042,0.673-0.56,1.015-1.151,1.183
		            C13.123,14.214,12.994,14.214,12.853,14.19z"/>
	                 <path id="ring" d="M11.163,0.545c5.865,0,10.624,4.751,10.624,10.621s-4.759,10.621-10.624,10.621
		            c-5.865,0-10.616-4.751-10.616-10.621S5.298,0.545,11.163,0.545 M11.163,0C5.009,0,0,5.009,0,11.166
		            c0,6.157,5.009,11.166,11.163,11.166c6.159,0,11.171-5.009,11.171-11.166C22.334,5.009,17.322,0,11.163,0L11.163,0z"/>
                </g>
            </symbol>

			<symbol id="last" viewBox="0 0 22.33 22.33">
                <g id="twittericon">
					<path id="ring"  d="M11.168,0.544c5.86,0,10.616,4.751,10.616,10.621c0,5.86-4.756,10.621-10.616,10.621
					c-5.87,0-10.621-4.761-10.621-10.621C0.547,5.296,5.298,0.544,11.168,0.544 M11.168,0C5.011,0,0,5.009,0,11.166
					s5.011,11.166,11.168,11.166c6.152,0,11.16-5.009,11.16-11.166S17.32,0,11.168,0L11.168,0z"/>
					<path id="tweet" d="M4.739,15.491c1.01,0.064,1.99-0.084,2.911-0.5
					c0.416-0.183,0.792-0.406,1.168-0.703c-0.44-0.01-0.841-0.119-1.208-0.302c-0.623-0.317-1.064-0.816-1.331-1.49
					c-0.059-0.148-0.059-0.148,0.104-0.138c0.445,0.044,0.772,0.034,1.024-0.064c-0.242-0.084-0.47-0.129-0.658-0.252
					c-0.931-0.515-1.425-1.312-1.509-2.381c-0.01-0.124,0.025-0.138,0.138-0.084C5.704,9.76,6.06,9.834,6.471,9.874
					c-0.178-0.158-0.331-0.287-0.47-0.426C5.229,8.617,5.046,7.3,5.56,6.285C5.63,6.147,5.654,6.147,5.749,6.256
					c1.301,1.5,2.92,2.405,4.87,2.717c0.198,0.04,0.416,0.04,0.619,0.084c0.138,0.02,0.153-0.045,0.133-0.148
					c-0.203-1.173,0.347-2.336,1.386-2.92c1.059-0.619,2.435-0.426,3.286,0.406c0.099,0.084,0.193,0.104,0.307,0.074
					c0.525-0.119,1.014-0.312,1.475-0.579c0.04-0.01,0.069-0.03,0.119-0.075c-0.198,0.663-0.594,1.153-1.178,1.544
					c0.539-0.049,1.024-0.213,1.505-0.391c0.01,0.064-0.04,0.104-0.069,0.158c-0.327,0.445-0.708,0.841-1.158,1.183
					c-0.084,0.064-0.104,0.119-0.104,0.223c0.034,2.049-0.619,3.87-1.925,5.454c-1.227,1.44-2.797,2.317-4.662,2.614
					c-1.98,0.307-3.841-0.02-5.553-1.079C4.779,15.501,4.754,15.491,4.739,15.491z"/>
				</g>
            </symbol>

			<symbol id="second" viewBox="0 0 30 35">
            	<g id="instaicon">
					<path id="ring" d="M11.168,0.544c5.86,0,10.616,4.751,10.616,10.621c0,5.86-4.756,10.621-10.616,10.621
					c-5.87,0-10.621-4.761-10.621-10.621C0.547,5.296,5.298,0.544,11.168,0.544 M11.168,0C5.011,0,0,5.009,0,11.166
					s5.011,11.166,11.168,11.166c6.152,0,11.16-5.009,11.16-11.166S17.32,0,11.168,0L11.168,0z"/>
					<path id="cam" d="M11.164,5.699c1.78,0,1.991,0.007,2.694,0.039c0.65,0.03,1.003,0.138,1.238,0.23
					c0.311,0.121,0.533,0.265,0.767,0.499c0.233,0.233,0.378,0.455,0.499,0.767c0.091,0.235,0.2,0.588,0.23,1.238
					c0.032,0.703,0.039,0.914,0.039,2.694c0,1.78-0.007,1.991-0.039,2.694c-0.03,0.65-0.138,1.003-0.23,1.238
					c-0.121,0.311-0.265,0.533-0.499,0.767c-0.233,0.233-0.455,0.378-0.767,0.499c-0.235,0.091-0.588,0.2-1.238,0.23
					c-0.703,0.032-0.914,0.039-2.694,0.039c-1.781,0-1.991-0.007-2.694-0.039c-0.65-0.03-1.003-0.138-1.238-0.23
					c-0.311-0.121-0.533-0.265-0.767-0.499c-0.233-0.233-0.378-0.455-0.499-0.767c-0.091-0.235-0.2-0.588-0.23-1.238
					c-0.032-0.703-0.039-0.914-0.039-2.694c0-1.78,0.007-1.991,0.039-2.694c0.03-0.65,0.138-1.003,0.23-1.238
					C6.087,6.922,6.232,6.7,6.465,6.466C6.698,6.233,6.92,6.088,7.232,5.967c0.235-0.091,0.588-0.2,1.238-0.23
					C9.173,5.706,9.384,5.699,11.164,5.699 M11.164,4.498c-1.811,0-2.038,0.008-2.749,0.04c-0.71,0.032-1.194,0.145-1.619,0.31
					c-0.439,0.17-0.81,0.398-1.181,0.769C5.245,5.987,5.017,6.359,4.846,6.798c-0.165,0.424-0.278,0.909-0.31,1.619
					c-0.032,0.711-0.04,0.938-0.04,2.749c0,1.811,0.008,2.038,0.04,2.749c0.032,0.71,0.145,1.194,0.31,1.619
					c0.17,0.438,0.398,0.81,0.769,1.181c0.371,0.371,0.743,0.599,1.181,0.769c0.424,0.165,0.909,0.278,1.619,0.31
					c0.711,0.032,0.938,0.04,2.749,0.04c1.811,0,2.038-0.008,2.749-0.04c0.71-0.032,1.194-0.145,1.619-0.31
					c0.439-0.17,0.81-0.398,1.181-0.769c0.371-0.371,0.599-0.743,0.769-1.181c0.165-0.424,0.278-0.909,0.31-1.619
					c0.032-0.711,0.04-0.938,0.04-2.749c0-1.811-0.008-2.038-0.04-2.749c-0.032-0.71-0.145-1.194-0.31-1.619
					c-0.17-0.438-0.398-0.81-0.769-1.181c-0.371-0.371-0.743-0.599-1.181-0.769c-0.424-0.165-0.909-0.278-1.619-0.31
					C13.202,4.505,12.975,4.498,11.164,4.498"/>
					<path id="shutter" d="M11.164,7.741c-1.891,0-3.424,1.533-3.424,3.424c0,1.891,1.533,3.424,3.424,3.424
					c1.891,0,3.424-1.533,3.424-3.424C14.588,9.274,13.055,7.741,11.164,7.741 M11.164,13.388c-1.228,0-2.223-0.995-2.223-2.223
					s0.995-2.223,2.223-2.223c1.228,0,2.223,0.995,2.223,2.223S12.392,13.388,11.164,13.388"/>
					<path id="point" d="M15.524,7.606c0,0.442-0.358,0.8-0.8,0.8c-0.442,0-0.8-0.358-0.8-0.8
					c0-0.442,0.358-0.8,0.8-0.8C15.166,6.806,15.524,7.164,15.524,7.606"/>
				</g>
            </symbol>

			<symbol id="navicon" viewBox="0 0 40 30">
                <g id="navicon">
					<path id="1" d="M40,3.116c0,1.497-1.224,2.721-2.721,2.721H9.351c-1.497,0-2.721-1.224-2.721-2.721V2.721
						C6.63,1.224,7.855,0,9.351,0h27.928C38.776,0,40,1.224,40,2.721V3.116z"/>
					<path id="2" d="M40,26.948c0,1.497-1.224,2.721-2.721,2.721H9.351c-1.497,0-2.721-1.224-2.721-2.721v-0.395
						c0-1.497,1.224-2.721,2.721-2.721h27.928c1.497,0,2.721,1.224,2.721,2.721V26.948z"/>
					<path id="3" d="M40,15.198c0,1.497-1.224,2.721-2.721,2.721H2.721C1.224,17.918,0,16.694,0,15.198v-0.395
						c0-1.497,1.224-2.721,2.721-2.721h34.558c1.497,0,2.721,1.224,2.721,2.721V15.198z"/>
				</g>
            </symbol>

			<symbol id="nav-class" viewBox="0 0 26.682 4.337">
				<path id="nav-top" d="M26.682,2.24c0,1.154-0.944,2.097-2.097,2.097H2.097C0.944,4.337,0,3.393,0,2.24V2.097
					C0,0.944,0.944,0,2.097,0h22.488c1.154,0,2.097,0.944,2.097,2.097V2.24z"/>
			</symbol>
            </svg>
