<?xml version="1.0" encoding="utf-8"?>
<!-- Generator: Adobe Illustrator 17.0.0, SVG Export Plug-In . SVG Version: 6.00 Build 0)  -->
<!DOCTYPE svg PUBLIC "-//W3C//DTD SVG 1.1//EN" "http://www.w3.org/Graphics/SVG/1.1/DTD/svg11.dtd">
<svg version="1.1" id="Layer_1" xmlns="http://www.w3.org/2000/svg" xmlns:xlink="http://www.w3.org/1999/xlink" x="0px" y="0px"
	 width="12.021px" height="14.843px" viewBox="0 0 12.021 14.843" enable-background="new 0 0 12.021 14.843" xml:space="preserve">
<g id="rounded_user_1_">
	<g>
		<g>
			<path fill="#FB1F4C" d="M6.01,1.3c1.141,0,2.07,0.958,2.07,2.136S7.152,5.572,6.01,5.572s-2.07-0.958-2.07-2.136
				S4.869,1.3,6.01,1.3 M6.01,0c-1.861,0-3.37,1.538-3.37,3.436s1.509,3.436,3.37,3.436c1.861,0,3.37-1.538,3.37-3.436
				S7.872,0,6.01,0L6.01,0z"/>
		</g>
	</g>
	<g>
		<g>
			<path fill="#FB1F4C" d="M8.077,8.909c1.458,0,2.645,1.04,2.645,2.317s-1.186,2.317-2.645,2.317H3.944
				c-1.458,0-2.644-1.04-2.644-2.317s1.186-2.317,2.644-2.317H8.077 M8.077,7.609H3.944C1.775,7.609,0,9.236,0,11.226
				s1.775,3.617,3.944,3.617h4.132c2.169,0,3.945-1.628,3.945-3.617S10.246,7.609,8.077,7.609L8.077,7.609z"/>
		</g>
	</g>
</g>
</svg>
